<?xml version="1.0" encoding="UTF-8" standalone="no"?><!DOCTYPE svg PUBLIC "-//W3C//DTD SVG 1.1//EN" "http://www.w3.org/Graphics/SVG/1.1/DTD/svg11.dtd"><svg width="100%" height="100%" viewBox="0 0 43 8" version="1.1" xmlns="http://www.w3.org/2000/svg" xmlns:xlink="http://www.w3.org/1999/xlink" xml:space="preserve" xmlns:serif="http://www.serif.com/" style="fill-rule:evenodd;clip-rule:evenodd;stroke-linejoin:round;stroke-miterlimit:1.41421;"><g id="svatbarcamp"><path d="M39.516,7.175l-0.849,0l0,-5.272l0.805,0l0,0.521l0.015,0c0.119,-0.223 0.285,-0.384 0.498,-0.48c0.214,-0.097 0.445,-0.146 0.693,-0.146c0.303,0 0.567,0.054 0.793,0.161c0.226,0.106 0.413,0.253 0.562,0.439c0.149,0.186 0.261,0.403 0.335,0.651c0.075,0.249 0.112,0.514 0.112,0.797c0,0.258 -0.034,0.509 -0.101,0.752c-0.067,0.244 -0.168,0.458 -0.305,0.644c-0.136,0.187 -0.309,0.335 -0.517,0.447c-0.209,0.112 -0.455,0.168 -0.738,0.168c-0.124,0 -0.248,-0.011 -0.372,-0.034c-0.124,-0.022 -0.243,-0.058 -0.357,-0.108c-0.114,-0.049 -0.22,-0.113 -0.317,-0.19c-0.097,-0.077 -0.177,-0.167 -0.242,-0.271l-0.015,0l0,1.921Zm-25.31,-1.423l-0.804,0l0,-5.316l0.849,0l0,1.966l0.015,0c0.06,-0.095 0.132,-0.179 0.216,-0.254c0.084,-0.074 0.177,-0.137 0.279,-0.189c0.102,-0.053 0.209,-0.092 0.32,-0.12c0.112,-0.027 0.222,-0.041 0.332,-0.041c0.303,0 0.567,0.054 0.793,0.161c0.226,0.106 0.413,0.253 0.562,0.439c0.149,0.186 0.261,0.403 0.335,0.651c0.074,0.249 0.112,0.514 0.112,0.797c0,0.258 -0.034,0.509 -0.101,0.752c-0.067,0.244 -0.169,0.458 -0.305,0.644c-0.137,0.187 -0.309,0.335 -0.518,0.447c-0.208,0.112 -0.454,0.168 -0.737,0.168c-0.129,0 -0.259,-0.009 -0.391,-0.026c-0.131,-0.018 -0.257,-0.051 -0.376,-0.101c-0.119,-0.05 -0.227,-0.114 -0.324,-0.193c-0.096,-0.08 -0.177,-0.184 -0.242,-0.313l-0.015,0l0,0.528Zm14.826,-2.673l-0.849,0c0.015,-0.248 0.075,-0.454 0.179,-0.618c0.104,-0.164 0.237,-0.295 0.398,-0.394c0.162,-0.1 0.344,-0.169 0.547,-0.209c0.204,-0.04 0.413,-0.06 0.626,-0.06c0.189,0 0.375,0.02 0.558,0.06c0.184,0.04 0.349,0.104 0.496,0.194c0.146,0.089 0.264,0.204 0.353,0.346c0.09,0.141 0.134,0.314 0.134,0.517l0,1.981c0,0.104 0.014,0.179 0.041,0.224c0.028,0.044 0.081,0.067 0.16,0.067c0.025,0 0.055,0 0.09,0c0.035,0 0.074,-0.005 0.119,-0.015l0,0.588c-0.03,0.01 -0.068,0.021 -0.115,0.033c-0.048,0.013 -0.096,0.024 -0.146,0.034c-0.049,0.01 -0.099,0.017 -0.149,0.022c-0.049,0.005 -0.091,0.008 -0.126,0.008c-0.174,0 -0.318,-0.035 -0.432,-0.105c-0.114,-0.069 -0.189,-0.191 -0.223,-0.364c-0.169,0.163 -0.377,0.283 -0.622,0.357c-0.246,0.074 -0.483,0.112 -0.711,0.112c-0.174,0 -0.34,-0.024 -0.499,-0.071c-0.159,-0.047 -0.299,-0.117 -0.421,-0.209c-0.122,-0.091 -0.218,-0.208 -0.29,-0.349c-0.072,-0.142 -0.108,-0.307 -0.108,-0.496c0,-0.238 0.043,-0.432 0.13,-0.58c0.087,-0.149 0.201,-0.266 0.342,-0.35c0.142,-0.085 0.301,-0.146 0.477,-0.183c0.176,-0.037 0.354,-0.066 0.532,-0.086c0.154,-0.029 0.301,-0.05 0.44,-0.063c0.139,-0.012 0.262,-0.033 0.368,-0.063c0.107,-0.03 0.191,-0.076 0.254,-0.138c0.062,-0.062 0.093,-0.155 0.093,-0.279c0,-0.109 -0.026,-0.199 -0.079,-0.268c-0.052,-0.07 -0.116,-0.123 -0.193,-0.16c-0.077,-0.038 -0.163,-0.062 -0.257,-0.075c-0.094,-0.012 -0.184,-0.018 -0.268,-0.018c-0.238,0 -0.435,0.049 -0.588,0.149c-0.154,0.099 -0.241,0.253 -0.261,0.461Zm-10.432,0l-0.849,0c0.015,-0.248 0.074,-0.454 0.179,-0.618c0.104,-0.164 0.237,-0.295 0.398,-0.394c0.161,-0.1 0.344,-0.169 0.547,-0.209c0.204,-0.04 0.412,-0.06 0.626,-0.06c0.188,0 0.375,0.02 0.558,0.06c0.184,0.04 0.349,0.104 0.495,0.194c0.147,0.089 0.265,0.204 0.354,0.346c0.089,0.141 0.134,0.314 0.134,0.517l0,1.981c0,0.104 0.014,0.179 0.041,0.224c0.027,0.044 0.081,0.067 0.16,0.067c0.025,0 0.055,0 0.09,0c0.034,0 0.074,-0.005 0.119,-0.015l0,0.588c-0.03,0.01 -0.069,0.021 -0.116,0.033c-0.047,0.013 -0.095,0.024 -0.145,0.034c-0.05,0.01 -0.099,0.017 -0.149,0.022c-0.05,0.005 -0.092,0.008 -0.126,0.008c-0.174,0 -0.318,-0.035 -0.432,-0.105c-0.115,-0.069 -0.189,-0.191 -0.224,-0.364c-0.169,0.163 -0.376,0.283 -0.622,0.357c-0.245,0.074 -0.482,0.112 -0.711,0.112c-0.173,0 -0.34,-0.024 -0.499,-0.071c-0.158,-0.047 -0.299,-0.117 -0.42,-0.209c-0.122,-0.091 -0.219,-0.208 -0.291,-0.349c-0.072,-0.142 -0.108,-0.307 -0.108,-0.496c0,-0.238 0.044,-0.432 0.131,-0.58c0.087,-0.149 0.201,-0.266 0.342,-0.35c0.142,-0.085 0.301,-0.146 0.477,-0.183c0.176,-0.037 0.353,-0.066 0.532,-0.086c0.154,-0.029 0.301,-0.05 0.44,-0.063c0.139,-0.012 0.261,-0.033 0.368,-0.063c0.107,-0.03 0.191,-0.076 0.253,-0.138c0.062,-0.062 0.093,-0.155 0.093,-0.279c0,-0.109 -0.026,-0.199 -0.078,-0.268c-0.052,-0.07 -0.116,-0.123 -0.193,-0.16c-0.077,-0.038 -0.163,-0.062 -0.257,-0.075c-0.095,-0.012 -0.184,-0.018 -0.268,-0.018c-0.239,0 -0.435,0.049 -0.589,0.149c-0.154,0.099 -0.24,0.253 -0.26,0.461Zm9.069,0.112l-0.849,0c-0.034,-0.238 -0.13,-0.418 -0.286,-0.54c-0.157,-0.122 -0.354,-0.182 -0.592,-0.182c-0.109,0 -0.226,0.018 -0.35,0.055c-0.124,0.038 -0.238,0.107 -0.343,0.209c-0.104,0.102 -0.191,0.243 -0.26,0.424c-0.07,0.182 -0.105,0.419 -0.105,0.712c0,0.158 0.019,0.317 0.056,0.476c0.037,0.159 0.097,0.3 0.179,0.425c0.082,0.124 0.187,0.224 0.316,0.301c0.129,0.077 0.286,0.116 0.47,0.116c0.248,0 0.453,-0.077 0.614,-0.231c0.161,-0.154 0.262,-0.37 0.301,-0.648l0.849,0c-0.079,0.501 -0.269,0.885 -0.569,1.15c-0.301,0.266 -0.699,0.399 -1.195,0.399c-0.303,0 -0.57,-0.051 -0.801,-0.153c-0.231,-0.102 -0.426,-0.241 -0.584,-0.417c-0.159,-0.176 -0.28,-0.386 -0.362,-0.629c-0.082,-0.243 -0.122,-0.506 -0.122,-0.789c0,-0.288 0.039,-0.559 0.119,-0.812c0.079,-0.253 0.198,-0.473 0.357,-0.659c0.159,-0.186 0.356,-0.333 0.592,-0.439c0.236,-0.107 0.513,-0.161 0.83,-0.161c0.224,0 0.436,0.029 0.637,0.086c0.201,0.057 0.38,0.143 0.536,0.257c0.156,0.114 0.284,0.258 0.384,0.432c0.099,0.174 0.158,0.38 0.178,0.618Zm-4.974,2.561l-0.849,0l0,-3.849l0.797,0l0,0.744l0.015,0c0.025,-0.104 0.073,-0.206 0.145,-0.305c0.072,-0.099 0.159,-0.19 0.261,-0.272c0.102,-0.082 0.214,-0.147 0.339,-0.197c0.124,-0.05 0.25,-0.075 0.379,-0.075c0.1,0 0.168,0.003 0.205,0.008c0.037,0.005 0.076,0.01 0.116,0.015l0,0.819c-0.06,-0.01 -0.121,-0.019 -0.183,-0.026c-0.062,-0.008 -0.123,-0.011 -0.182,-0.011c-0.144,0 -0.28,0.028 -0.406,0.085c-0.127,0.057 -0.237,0.142 -0.332,0.253c-0.094,0.112 -0.168,0.25 -0.223,0.414c-0.055,0.164 -0.082,0.352 -0.082,0.566l0,1.831Zm10.432,0l-0.848,0l0,-3.849l0.804,0l0,0.536l0.022,0c0.065,-0.094 0.134,-0.181 0.209,-0.261c0.074,-0.079 0.157,-0.146 0.249,-0.201c0.092,-0.054 0.197,-0.098 0.317,-0.13c0.119,-0.032 0.255,-0.049 0.409,-0.049c0.233,0 0.451,0.053 0.652,0.157c0.201,0.104 0.343,0.265 0.428,0.484c0.144,-0.199 0.31,-0.355 0.499,-0.469c0.188,-0.114 0.424,-0.172 0.707,-0.172c0.407,0 0.724,0.1 0.949,0.298c0.226,0.199 0.339,0.532 0.339,0.998l0,2.658l-0.849,0l0,-2.248c0,-0.154 -0.005,-0.294 -0.014,-0.421c-0.01,-0.127 -0.039,-0.236 -0.086,-0.328c-0.047,-0.092 -0.118,-0.162 -0.212,-0.212c-0.095,-0.05 -0.224,-0.074 -0.388,-0.074c-0.287,0 -0.496,0.089 -0.625,0.268c-0.129,0.178 -0.194,0.432 -0.194,0.759l0,2.256l-0.849,0l0,-2.472c0,-0.268 -0.048,-0.47 -0.145,-0.607c-0.097,-0.136 -0.274,-0.204 -0.532,-0.204c-0.109,0 -0.215,0.022 -0.317,0.067c-0.101,0.044 -0.191,0.109 -0.268,0.193c-0.077,0.085 -0.139,0.189 -0.186,0.313c-0.047,0.124 -0.071,0.266 -0.071,0.424l0,2.286Zm-16.761,-1.921c0,-0.173 -0.023,-0.342 -0.067,-0.506c-0.045,-0.164 -0.112,-0.309 -0.201,-0.436c-0.09,-0.126 -0.201,-0.228 -0.335,-0.305c-0.134,-0.077 -0.288,-0.115 -0.462,-0.115c-0.357,0 -0.627,0.124 -0.808,0.372c-0.181,0.248 -0.272,0.578 -0.272,0.99c0,0.194 0.024,0.374 0.071,0.54c0.047,0.166 0.118,0.309 0.212,0.428c0.095,0.119 0.208,0.214 0.339,0.283c0.132,0.07 0.284,0.105 0.458,0.105c0.194,0 0.357,-0.04 0.491,-0.12c0.135,-0.079 0.245,-0.182 0.332,-0.309c0.087,-0.126 0.149,-0.27 0.186,-0.431c0.037,-0.162 0.056,-0.327 0.056,-0.496Zm14.259,-0.007c-0.129,0.084 -0.287,0.135 -0.476,0.153c-0.189,0.017 -0.377,0.043 -0.566,0.078c-0.089,0.015 -0.176,0.036 -0.261,0.063c-0.084,0.027 -0.158,0.065 -0.223,0.112c-0.065,0.047 -0.115,0.109 -0.153,0.186c-0.037,0.077 -0.055,0.17 -0.055,0.279c0,0.094 0.027,0.174 0.081,0.238c0.055,0.065 0.121,0.116 0.198,0.153c0.077,0.037 0.161,0.063 0.253,0.078c0.092,0.015 0.175,0.023 0.249,0.023c0.095,0 0.196,-0.013 0.306,-0.038c0.109,-0.025 0.212,-0.067 0.309,-0.126c0.096,-0.06 0.177,-0.136 0.242,-0.227c0.064,-0.092 0.096,-0.205 0.096,-0.339l0,-0.633Zm-10.432,0c-0.129,0.084 -0.288,0.135 -0.476,0.153c-0.189,0.017 -0.378,0.043 -0.566,0.078c-0.09,0.015 -0.176,0.036 -0.261,0.063c-0.084,0.027 -0.159,0.065 -0.223,0.112c-0.065,0.047 -0.116,0.109 -0.153,0.186c-0.037,0.077 -0.056,0.17 -0.056,0.279c0,0.094 0.028,0.174 0.082,0.238c0.055,0.065 0.121,0.116 0.197,0.153c0.077,0.037 0.162,0.063 0.254,0.078c0.091,0.015 0.175,0.023 0.249,0.023c0.094,0 0.196,-0.013 0.305,-0.038c0.11,-0.025 0.213,-0.067 0.309,-0.126c0.097,-0.06 0.178,-0.136 0.242,-0.227c0.065,-0.092 0.097,-0.205 0.097,-0.339l0,-0.633Zm21.438,0.007c0,-0.173 -0.022,-0.342 -0.067,-0.506c-0.045,-0.164 -0.112,-0.309 -0.201,-0.436c-0.089,-0.126 -0.201,-0.228 -0.335,-0.305c-0.134,-0.077 -0.288,-0.115 -0.462,-0.115c-0.357,0 -0.626,0.124 -0.808,0.372c-0.181,0.248 -0.271,0.578 -0.271,0.99c0,0.194 0.023,0.374 0.07,0.54c0.047,0.166 0.118,0.309 0.213,0.428c0.094,0.119 0.207,0.214 0.338,0.283c0.132,0.07 0.285,0.105 0.458,0.105c0.194,0 0.358,-0.04 0.492,-0.12c0.134,-0.079 0.244,-0.182 0.331,-0.309c0.087,-0.126 0.149,-0.27 0.186,-0.431c0.038,-0.162 0.056,-0.327 0.056,-0.496Z" style="fill:url(#_Linear1);fill-rule:nonzero;"/><text x="-0.134px" y="5.8px" style="font-family:'Merriweather-LightItalic', 'Merriweather';font-weight:300;font-style:italic;font-size:7.199px;fill:#fff;fill-opacity:0.8;">svatba</text></g><defs><linearGradient id="_Linear1" x1="0" y1="0" x2="1" y2="0" gradientUnits="userSpaceOnUse" gradientTransform="matrix(-14.64,1.79288e-15,-1.79288e-15,-14.64,37.44,3.80526)"><stop offset="0" style="stop-color:#fff;stop-opacity:0.431373"/><stop offset="0.64" style="stop-color:#fff;stop-opacity:0.403922"/><stop offset="0.84" style="stop-color:#fff;stop-opacity:0.32549"/><stop offset="1" style="stop-color:#fff;stop-opacity:0.235294"/></linearGradient></defs></svg>